<mxfile host="app.diagrams.net" modified="2020-07-06T07:35:34.798Z" agent="5.0 (Macintosh; Intel Mac OS X 10_15_6) AppleWebKit/605.1.15 (KHTML, like Gecko) Version/13.1.1 Safari/605.1.15" etag="iuyYBINpBU4uhDIzmdNx" version="13.3.9" type="github">
  <diagram id="mzG0-uQFuKnF71DLqjv8" name="Page-1">
    <mxGraphModel dx="946" dy="662" grid="1" gridSize="10" guides="1" tooltips="1" connect="1" arrows="1" fold="1" page="1" pageScale="1" pageWidth="1169" pageHeight="827" math="0" shadow="0">
      <root>
        <mxCell id="0" />
        <mxCell id="1" parent="0" />
        <mxCell id="Y6NIe_As-xSgo9Me_90i-1" value="Consumer Unit" style="rounded=0;whiteSpace=wrap;html=1;" parent="1" vertex="1">
          <mxGeometry x="350" y="290" width="120" height="60" as="geometry" />
        </mxCell>
        <mxCell id="Y6NIe_As-xSgo9Me_90i-2" value="Electricity Meter" style="rounded=0;whiteSpace=wrap;html=1;" parent="1" vertex="1">
          <mxGeometry x="120" y="290" width="120" height="60" as="geometry" />
        </mxCell>
        <mxCell id="Y6NIe_As-xSgo9Me_90i-3" value="Zappi" style="rounded=0;whiteSpace=wrap;html=1;" parent="1" vertex="1">
          <mxGeometry x="364" y="150" width="120" height="60" as="geometry" />
        </mxCell>
        <mxCell id="Y6NIe_As-xSgo9Me_90i-4" value="FIT Meter" style="rounded=0;whiteSpace=wrap;html=1;" parent="1" vertex="1">
          <mxGeometry x="570" y="290" width="120" height="60" as="geometry" />
        </mxCell>
        <mxCell id="Y6NIe_As-xSgo9Me_90i-5" value="Other Gadget" style="rounded=0;whiteSpace=wrap;html=1;" parent="1" vertex="1">
          <mxGeometry x="120" y="400" width="120" height="60" as="geometry" />
        </mxCell>
        <mxCell id="Y6NIe_As-xSgo9Me_90i-6" value="Moixa" style="rounded=0;whiteSpace=wrap;html=1;" parent="1" vertex="1">
          <mxGeometry x="790" y="290" width="120" height="60" as="geometry" />
        </mxCell>
        <mxCell id="Y6NIe_As-xSgo9Me_90i-7" value="" style="endArrow=none;html=1;strokeColor=#3333FF;entryX=0;entryY=0.75;entryDx=0;entryDy=0;strokeWidth=8;" parent="1" target="Y6NIe_As-xSgo9Me_90i-2" edge="1">
          <mxGeometry width="50" height="50" relative="1" as="geometry">
            <mxPoint x="40" y="335" as="sourcePoint" />
            <mxPoint x="520" y="420" as="targetPoint" />
            <Array as="points" />
          </mxGeometry>
        </mxCell>
        <mxCell id="Y6NIe_As-xSgo9Me_90i-8" value="" style="endArrow=none;html=1;strokeColor=#6F0000;entryX=0;entryY=0.25;entryDx=0;entryDy=0;strokeWidth=8;fillColor=#a20025;" parent="1" target="Y6NIe_As-xSgo9Me_90i-2" edge="1">
          <mxGeometry width="50" height="50" relative="1" as="geometry">
            <mxPoint x="40" y="305" as="sourcePoint" />
            <mxPoint x="130" y="345" as="targetPoint" />
            <Array as="points" />
          </mxGeometry>
        </mxCell>
        <mxCell id="Y6NIe_As-xSgo9Me_90i-9" value="" style="endArrow=none;html=1;strokeColor=#3333FF;entryX=0.5;entryY=1;entryDx=0;entryDy=0;strokeWidth=8;exitX=0.5;exitY=0;exitDx=0;exitDy=0;" parent="1" source="Y6NIe_As-xSgo9Me_90i-5" target="Y6NIe_As-xSgo9Me_90i-2" edge="1">
          <mxGeometry width="50" height="50" relative="1" as="geometry">
            <mxPoint x="60" y="355" as="sourcePoint" />
            <mxPoint x="140" y="355" as="targetPoint" />
            <Array as="points" />
          </mxGeometry>
        </mxCell>
        <mxCell id="Y6NIe_As-xSgo9Me_90i-10" value="" style="endArrow=none;html=1;strokeColor=#6F0000;entryX=0.75;entryY=1;entryDx=0;entryDy=0;strokeWidth=8;exitX=0.75;exitY=0;exitDx=0;exitDy=0;fillColor=#a20025;" parent="1" source="Y6NIe_As-xSgo9Me_90i-5" target="Y6NIe_As-xSgo9Me_90i-2" edge="1">
          <mxGeometry width="50" height="50" relative="1" as="geometry">
            <mxPoint x="70" y="365" as="sourcePoint" />
            <mxPoint x="150" y="365" as="targetPoint" />
            <Array as="points" />
          </mxGeometry>
        </mxCell>
        <mxCell id="Y6NIe_As-xSgo9Me_90i-11" value="" style="curved=1;endArrow=classic;html=1;strokeColor=#000000;strokeWidth=2;exitX=0.25;exitY=1;exitDx=0;exitDy=0;entryX=0.75;entryY=1;entryDx=0;entryDy=0;" parent="1" source="Y6NIe_As-xSgo9Me_90i-5" target="Y6NIe_As-xSgo9Me_90i-4" edge="1">
          <mxGeometry width="50" height="50" relative="1" as="geometry">
            <mxPoint x="470" y="470" as="sourcePoint" />
            <mxPoint x="520" y="420" as="targetPoint" />
            <Array as="points">
              <mxPoint x="110" y="590" />
              <mxPoint x="630" y="640" />
              <mxPoint x="690" y="520" />
            </Array>
          </mxGeometry>
        </mxCell>
        <mxCell id="Y6NIe_As-xSgo9Me_90i-12" value="" style="whiteSpace=wrap;html=1;aspect=fixed;" parent="1" vertex="1">
          <mxGeometry x="350" y="410" width="80" height="80" as="geometry" />
        </mxCell>
        <mxCell id="Y6NIe_As-xSgo9Me_90i-13" value="" style="endArrow=none;html=1;strokeWidth=8;strokeColor=#3333FF;" parent="1" target="Y6NIe_As-xSgo9Me_90i-12" edge="1">
          <mxGeometry width="50" height="50" relative="1" as="geometry">
            <mxPoint x="240" y="448" as="sourcePoint" />
            <mxPoint x="270" y="440" as="targetPoint" />
            <Array as="points" />
          </mxGeometry>
        </mxCell>
        <mxCell id="Y6NIe_As-xSgo9Me_90i-14" value="" style="endArrow=none;html=1;strokeColor=#6F0000;strokeWidth=8;exitX=1;exitY=0.5;exitDx=0;exitDy=0;fillColor=#a20025;entryX=0;entryY=0.25;entryDx=0;entryDy=0;" parent="1" source="Y6NIe_As-xSgo9Me_90i-22" target="Y6NIe_As-xSgo9Me_90i-12" edge="1">
          <mxGeometry width="50" height="50" relative="1" as="geometry">
            <mxPoint x="220" y="410" as="sourcePoint" />
            <mxPoint x="300" y="420" as="targetPoint" />
            <Array as="points" />
          </mxGeometry>
        </mxCell>
        <mxCell id="Y6NIe_As-xSgo9Me_90i-15" value="" style="endArrow=none;html=1;strokeColor=#6F0000;strokeWidth=8;exitX=1;exitY=0.25;exitDx=0;exitDy=0;fillColor=#a20025;entryX=0.25;entryY=1;entryDx=0;entryDy=0;" parent="1" source="Y6NIe_As-xSgo9Me_90i-12" target="Y6NIe_As-xSgo9Me_90i-4" edge="1">
          <mxGeometry width="50" height="50" relative="1" as="geometry">
            <mxPoint x="520" y="420" as="sourcePoint" />
            <mxPoint x="610" y="420" as="targetPoint" />
            <Array as="points">
              <mxPoint x="600" y="430" />
            </Array>
          </mxGeometry>
        </mxCell>
        <mxCell id="Y6NIe_As-xSgo9Me_90i-16" value="" style="endArrow=none;html=1;strokeWidth=8;fillColor=#0050ef;strokeColor=#3333FF;" parent="1" target="Y6NIe_As-xSgo9Me_90i-4" edge="1">
          <mxGeometry width="50" height="50" relative="1" as="geometry">
            <mxPoint x="430" y="450" as="sourcePoint" />
            <mxPoint x="500" y="449.5" as="targetPoint" />
            <Array as="points">
              <mxPoint x="631" y="450" />
            </Array>
          </mxGeometry>
        </mxCell>
        <mxCell id="Y6NIe_As-xSgo9Me_90i-17" value="" style="endArrow=none;html=1;strokeWidth=8;exitX=0.25;exitY=0;exitDx=0;exitDy=0;fillColor=#0050ef;entryX=0.25;entryY=1;entryDx=0;entryDy=0;strokeColor=#3333FF;" parent="1" source="Y6NIe_As-xSgo9Me_90i-12" target="Y6NIe_As-xSgo9Me_90i-1" edge="1">
          <mxGeometry width="50" height="50" relative="1" as="geometry">
            <mxPoint x="290" y="370" as="sourcePoint" />
            <mxPoint x="380" y="370" as="targetPoint" />
            <Array as="points">
              <mxPoint x="370" y="380" />
            </Array>
          </mxGeometry>
        </mxCell>
        <mxCell id="Y6NIe_As-xSgo9Me_90i-18" value="" style="endArrow=none;html=1;strokeColor=#6F0000;strokeWidth=8;fillColor=#a20025;entryX=0.5;entryY=1;entryDx=0;entryDy=0;" parent="1" source="Y6NIe_As-xSgo9Me_90i-12" target="Y6NIe_As-xSgo9Me_90i-1" edge="1">
          <mxGeometry width="50" height="50" relative="1" as="geometry">
            <mxPoint x="394" y="380" as="sourcePoint" />
            <mxPoint x="484" y="380" as="targetPoint" />
            <Array as="points">
              <mxPoint x="390" y="380" />
            </Array>
          </mxGeometry>
        </mxCell>
        <mxCell id="Y6NIe_As-xSgo9Me_90i-19" value="" style="endArrow=none;html=1;strokeColor=#6F0000;strokeWidth=8;fillColor=#a20025;entryX=0;entryY=0.25;entryDx=0;entryDy=0;exitX=1;exitY=0.25;exitDx=0;exitDy=0;" parent="1" source="Y6NIe_As-xSgo9Me_90i-4" target="Y6NIe_As-xSgo9Me_90i-6" edge="1">
          <mxGeometry width="50" height="50" relative="1" as="geometry">
            <mxPoint x="690" y="310" as="sourcePoint" />
            <mxPoint x="780" y="310" as="targetPoint" />
            <Array as="points" />
          </mxGeometry>
        </mxCell>
        <mxCell id="Y6NIe_As-xSgo9Me_90i-20" value="" style="endArrow=none;html=1;strokeWidth=8;fillColor=#0050ef;entryX=0;entryY=0.5;entryDx=0;entryDy=0;exitX=1;exitY=0.5;exitDx=0;exitDy=0;strokeColor=#3333FF;" parent="1" source="Y6NIe_As-xSgo9Me_90i-4" target="Y6NIe_As-xSgo9Me_90i-6" edge="1">
          <mxGeometry width="50" height="50" relative="1" as="geometry">
            <mxPoint x="700" y="315" as="sourcePoint" />
            <mxPoint x="800" y="315" as="targetPoint" />
            <Array as="points" />
          </mxGeometry>
        </mxCell>
        <mxCell id="Y6NIe_As-xSgo9Me_90i-21" value="" style="endArrow=none;html=1;strokeWidth=8;exitX=0.25;exitY=0;exitDx=0;exitDy=0;fillColor=#647687;entryX=0.75;entryY=1;entryDx=0;entryDy=0;strokeColor=#D0D0D0;" parent="1" source="Y6NIe_As-xSgo9Me_90i-1" target="Y6NIe_As-xSgo9Me_90i-3" edge="1">
          <mxGeometry width="50" height="50" relative="1" as="geometry">
            <mxPoint x="350" y="260" as="sourcePoint" />
            <mxPoint x="520" y="180" as="targetPoint" />
            <Array as="points">
              <mxPoint x="380" y="260" />
              <mxPoint x="454" y="260" />
            </Array>
          </mxGeometry>
        </mxCell>
        <mxCell id="Y6NIe_As-xSgo9Me_90i-22" value="" style="rounded=0;whiteSpace=wrap;html=1;fillColor=#000000;" parent="1" vertex="1">
          <mxGeometry x="270" y="420" width="16" height="20" as="geometry" />
        </mxCell>
        <mxCell id="Y6NIe_As-xSgo9Me_90i-24" value="" style="endArrow=none;html=1;strokeColor=#6F0000;strokeWidth=8;exitX=1;exitY=0.5;exitDx=0;exitDy=0;fillColor=#a20025;entryX=0;entryY=0.5;entryDx=0;entryDy=0;" parent="1" source="Y6NIe_As-xSgo9Me_90i-5" target="Y6NIe_As-xSgo9Me_90i-22" edge="1">
          <mxGeometry width="50" height="50" relative="1" as="geometry">
            <mxPoint x="240" y="430" as="sourcePoint" />
            <mxPoint x="350" y="430" as="targetPoint" />
            <Array as="points" />
          </mxGeometry>
        </mxCell>
        <mxCell id="Y6NIe_As-xSgo9Me_90i-25" value="" style="curved=1;endArrow=classic;html=1;strokeColor=#000000;strokeWidth=2;exitX=0.5;exitY=0;exitDx=0;exitDy=0;" parent="1" source="Y6NIe_As-xSgo9Me_90i-22" target="Y6NIe_As-xSgo9Me_90i-3" edge="1">
          <mxGeometry width="50" height="50" relative="1" as="geometry">
            <mxPoint x="470" y="470" as="sourcePoint" />
            <mxPoint x="360" y="160" as="targetPoint" />
            <Array as="points">
              <mxPoint x="278" y="250" />
              <mxPoint x="270" y="160" />
            </Array>
          </mxGeometry>
        </mxCell>
        <mxCell id="Y6NIe_As-xSgo9Me_90i-27" value="" style="rounded=0;whiteSpace=wrap;html=1;fillColor=#000000;" parent="1" vertex="1">
          <mxGeometry x="510" y="420" width="16" height="20" as="geometry" />
        </mxCell>
        <mxCell id="Y6NIe_As-xSgo9Me_90i-28" value="" style="curved=1;endArrow=classic;html=1;strokeColor=#000000;strokeWidth=2;exitX=0.5;exitY=0;exitDx=0;exitDy=0;entryX=1;entryY=0.25;entryDx=0;entryDy=0;" parent="1" source="Y6NIe_As-xSgo9Me_90i-27" target="Y6NIe_As-xSgo9Me_90i-3" edge="1">
          <mxGeometry width="50" height="50" relative="1" as="geometry">
            <mxPoint x="710" y="470" as="sourcePoint" />
            <mxPoint x="604" y="158.57142857142856" as="targetPoint" />
            <Array as="points">
              <mxPoint x="530" y="180" />
              <mxPoint x="518" y="160" />
            </Array>
          </mxGeometry>
        </mxCell>
        <mxCell id="Y6NIe_As-xSgo9Me_90i-29" value="" style="curved=1;endArrow=classic;html=1;strokeColor=#000000;strokeWidth=2;exitX=0.942;exitY=1.017;exitDx=0;exitDy=0;exitPerimeter=0;entryX=0.45;entryY=1;entryDx=0;entryDy=0;entryPerimeter=0;" parent="1" source="Y6NIe_As-xSgo9Me_90i-4" target="Y6NIe_As-xSgo9Me_90i-6" edge="1">
          <mxGeometry width="50" height="50" relative="1" as="geometry">
            <mxPoint x="770" y="530" as="sourcePoint" />
            <mxPoint x="840" y="360" as="targetPoint" />
            <Array as="points">
              <mxPoint x="750" y="430" />
              <mxPoint x="830" y="420" />
            </Array>
          </mxGeometry>
        </mxCell>
        <mxCell id="IvM1U-LhmfEatTV9P_PF-1" value="Solar Array" style="shape=parallelogram;perimeter=parallelogramPerimeter;whiteSpace=wrap;html=1;" vertex="1" parent="1">
          <mxGeometry x="620" y="40" width="120" height="60" as="geometry" />
        </mxCell>
        <mxCell id="IvM1U-LhmfEatTV9P_PF-2" value="Inverter" style="rounded=0;whiteSpace=wrap;html=1;" vertex="1" parent="1">
          <mxGeometry x="620" y="160" width="120" height="60" as="geometry" />
        </mxCell>
        <mxCell id="IvM1U-LhmfEatTV9P_PF-3" value="" style="endArrow=none;html=1;strokeWidth=8;fillColor=#a20025;entryX=0.25;entryY=0;entryDx=0;entryDy=0;exitX=0.25;exitY=1;exitDx=0;exitDy=0;strokeColor=#3333FF;" edge="1" parent="1" source="IvM1U-LhmfEatTV9P_PF-1" target="IvM1U-LhmfEatTV9P_PF-2">
          <mxGeometry width="50" height="50" relative="1" as="geometry">
            <mxPoint x="650" y="130" as="sourcePoint" />
            <mxPoint x="750" y="130" as="targetPoint" />
            <Array as="points" />
          </mxGeometry>
        </mxCell>
        <mxCell id="IvM1U-LhmfEatTV9P_PF-4" value="" style="endArrow=none;html=1;strokeColor=#6F0000;strokeWidth=8;fillColor=#a20025;entryX=0.5;entryY=0;entryDx=0;entryDy=0;exitX=0.5;exitY=1;exitDx=0;exitDy=0;" edge="1" parent="1" source="IvM1U-LhmfEatTV9P_PF-1" target="IvM1U-LhmfEatTV9P_PF-2">
          <mxGeometry width="50" height="50" relative="1" as="geometry">
            <mxPoint x="670" y="110" as="sourcePoint" />
            <mxPoint x="670" y="170" as="targetPoint" />
            <Array as="points" />
          </mxGeometry>
        </mxCell>
        <mxCell id="IvM1U-LhmfEatTV9P_PF-5" value="" style="endArrow=none;html=1;strokeWidth=8;fillColor=#a20025;entryX=0.25;entryY=0;entryDx=0;entryDy=0;strokeColor=#3333FF;" edge="1" parent="1" target="Y6NIe_As-xSgo9Me_90i-4">
          <mxGeometry width="50" height="50" relative="1" as="geometry">
            <mxPoint x="650" y="220" as="sourcePoint" />
            <mxPoint x="650" y="280" as="targetPoint" />
            <Array as="points">
              <mxPoint x="650" y="240" />
              <mxPoint x="600" y="240" />
            </Array>
          </mxGeometry>
        </mxCell>
        <mxCell id="IvM1U-LhmfEatTV9P_PF-6" value="" style="endArrow=none;html=1;strokeColor=#6F0000;strokeWidth=8;fillColor=#a20025;entryX=0.5;entryY=0;entryDx=0;entryDy=0;exitX=0.5;exitY=1;exitDx=0;exitDy=0;" edge="1" parent="1" target="Y6NIe_As-xSgo9Me_90i-4">
          <mxGeometry width="50" height="50" relative="1" as="geometry">
            <mxPoint x="680" y="220" as="sourcePoint" />
            <mxPoint x="680" y="280" as="targetPoint" />
            <Array as="points">
              <mxPoint x="680" y="260" />
              <mxPoint x="630" y="260" />
            </Array>
          </mxGeometry>
        </mxCell>
      </root>
    </mxGraphModel>
  </diagram>
</mxfile>
